<svg width="32" height="32" viewBox="0 0 32 32" fill="none" xmlns="http://www.w3.org/2000/svg">
<rect x="4.5" y="6.5" width="23" height="13" rx="0.5" fill="#2B2B2B" stroke="#222222"/>
<rect x="2.5" y="9.5" width="27" height="13" rx="0.5" fill="#2B2B2B" stroke="#222222"/>
<rect x="0.5" y="12.5" width="31" height="13" rx="0.5" fill="#2B2B2B" stroke="#222222"/>
<path d="M6.73 22.014L6.082 21.396V19.92L6.73 19.332V22.014ZM4.558 16.722C4.418 16.61 4.278 16.504 4.138 16.404L4.558 16.08H8.242L8.662 16.404L8.242 16.722H6.712V19.122L6.064 18.54V17.058L6.418 16.722H4.558ZM11.5288 22.014L10.8808 21.396V19.92L11.5288 19.332V22.014ZM11.5168 16.44V19.122L10.8688 18.54V17.058L11.5168 16.44ZM15.6197 19.272H16.3757V20.022H15.6197V19.272ZM15.6197 17.49H16.3757V18.258H15.6197V17.49ZM19.0025 19.332L19.6505 19.956V21.426L19.0025 22.014V19.332ZM22.6565 22.014L22.0085 21.396V19.92L22.6565 19.332V22.014ZM20.6945 17.796L20.7245 18.06L20.2025 18.012L18.9965 16.89L18.9125 16.374L19.4345 16.422L20.6405 17.532L20.6945 17.796ZM18.9905 19.122V17.16L19.6385 17.748V18.51L18.9905 19.122ZM22.6445 17.16V19.122L21.9965 18.54V17.778L22.6445 17.16ZM20.8985 17.796L20.9525 17.532L22.1585 16.422L22.6805 16.374L22.5965 16.89L21.3905 18.012L20.8685 18.06L20.8985 17.796ZM24.3473 22.278L24.9653 21.63H26.4473L27.0353 22.278H24.3473ZM24.1733 19.332L24.8153 19.956V21.426L24.1733 22.014V19.332ZM24.8633 19.548C24.7153 19.432 24.5753 19.322 24.4433 19.218L24.8633 18.9H26.5013L26.9213 19.218L26.5013 19.548H24.8633ZM24.3413 16.182H27.0173L26.4353 16.83H24.9533L24.3413 16.182ZM24.1553 19.122V16.44L24.7973 17.022V18.51L24.1553 19.122Z" fill="#C81717"/>
</svg>
